<svg width="24" height="24" viewBox="0 0 24 24" fill="none" xmlns="http://www.w3.org/2000/svg">
<path d="M19.8369 8.43673L10.2369 18.0367C10.1533 18.1206 10.0539 18.1872 9.9445 18.2326C9.8351 18.2781 9.71782 18.3014 9.59936 18.3014C9.48091 18.3014 9.36362 18.2781 9.25423 18.2326C9.14483 18.1872 9.04548 18.1206 8.96186 18.0367L4.76186 13.8367C4.67815 13.753 4.61174 13.6536 4.56643 13.5442C4.52112 13.4349 4.4978 13.3176 4.4978 13.1992C4.4978 13.0808 4.52112 12.9636 4.56643 12.8542C4.61174 12.7448 4.67815 12.6454 4.76186 12.5617C4.84558 12.478 4.94497 12.4116 5.05435 12.3663C5.16373 12.321 5.28097 12.2977 5.39936 12.2977C5.51776 12.2977 5.63499 12.321 5.74438 12.3663C5.85376 12.4116 5.95315 12.478 6.03686 12.5617L9.60011 16.125L18.5634 7.16323C18.7324 6.99416 18.9618 6.89917 19.2009 6.89917C19.44 6.89917 19.6693 6.99416 19.8384 7.16323C20.0074 7.33231 20.1024 7.56162 20.1024 7.80073C20.1024 8.03984 20.0074 8.26916 19.8384 8.43823L19.8369 8.43673Z" fill="white"/>
</svg>
